<svg xmlns="http://www.w3.org/2000/svg" viewBox="0 0 24 24" fill="currentColor">
  <path d="M12 .5C5.73.5.5 5.73.5 12.02c0 5.1 3.29 9.42 7.86 10.95.58.11.79-.25.79-.56v-2.01c-3.2.7-3.88-1.37-3.88-1.37-.53-1.35-1.29-1.71-1.29-1.71-1.06-.72.08-.71.08-.71 1.17.08 1.78 1.21 1.78 1.21 1.04 1.77 2.72 1.26 3.38.96.1-.75.41-1.26.75-1.55-2.56-.29-5.26-1.28-5.26-5.69 0-1.26.45-2.29 1.2-3.09-.12-.3-.52-1.52.11-3.17 0 0 .97-.31 3.18 1.18a11.03 11.03 0 0 1 2.9-.39c.98 0 1.97.13 2.9.39 2.2-1.49 3.17-1.18 3.17-1.18.63 1.65.23 2.87.11 3.17.75.8 1.2 1.83 1.2 3.09 0 4.43-2.71 5.39-5.29 5.67.42.36.8 1.09.8 2.2v3.27c0 .31.21.67.8.56A10.53 10.53 0 0 0 23.5 12C23.5 5.73 18.27.5 12 .5z"></path>
</svg>
